<?xml version="1.0" standalone="no"?>
<!DOCTYPE svg PUBLIC "-//W3C//DTD SVG 20010904//EN"
 "http://www.w3.org/TR/2001/REC-SVG-20010904/DTD/svg10.dtd">
<svg version="1.0" xmlns="http://www.w3.org/2000/svg"
 width="1024.000000pt" height="1024.000000pt" viewBox="0 0 1024.000000 1024.000000"
 preserveAspectRatio="xMidYMid meet">

<g transform="translate(0.000000,1024.000000) scale(0.100000,-0.100000)"
fill="#000000" stroke="none">
<path d="M3670 9474 c-593 -90 -1062 -494 -1201 -1035 -12 -46 -22 -85 -23
-86 -1 -1 -32 -7 -69 -13 -199 -31 -383 -132 -523 -284 -163 -177 -231 -370
-234 -667 0 -4 -12 -10 -27 -14 -50 -12 -147 -66 -222 -123 -131 -100 -247
-254 -311 -414 -51 -129 -65 -214 -64 -388 1 -135 4 -165 26 -236 l25 -80 -58
-72 c-97 -120 -163 -247 -200 -389 -27 -98 -37 -342 -20 -436 28 -148 97 -300
191 -422 l41 -53 -31 -52 c-42 -71 -75 -153 -102 -251 -31 -114 -33 -394 -4
-504 21 -79 72 -197 116 -265 16 -25 32 -58 36 -75 16 -68 97 -203 183 -303
63 -74 171 -159 280 -222 72 -40 91 -56 86 -69 -54 -135 -66 -360 -27 -494 69
-239 227 -412 466 -507 120 -48 218 -63 376 -57 152 5 253 30 380 91 l72 36
-6 -32 c-16 -80 -89 -171 -277 -343 -82 -75 -104 -119 -104 -205 0 -52 5 -74
27 -110 66 -113 215 -204 394 -242 83 -17 121 -19 234 -15 189 8 346 50 523
139 l78 39 51 -46 c65 -59 117 -89 205 -119 210 -74 452 -59 696 44 173 72
393 263 507 438 29 45 55 80 57 78 2 -1 -3 -52 -12 -111 -29 -209 -94 -406
-188 -574 -56 -99 -72 -148 -63 -193 18 -97 92 -144 210 -135 152 12 425 129
610 261 372 267 604 616 693 1045 22 108 26 153 27 317 l1 191 100 -93 c270
-250 440 -363 640 -428 227 -73 517 -80 811 -21 298 60 509 167 675 343 135
142 212 297 231 467 14 113 -4 213 -57 319 l-36 73 27 79 c66 192 27 417 -96
557 l-41 46 15 53 c40 140 26 263 -45 407 -33 66 -59 101 -124 166 l-83 82 43
89 c23 49 77 148 120 219 146 248 227 446 276 675 33 152 33 369 0 495 -29
111 -57 176 -109 252 -182 265 -493 352 -771 215 -85 -41 -183 -131 -250 -230
l-43 -64 -16 24 c-33 50 -141 169 -266 294 -414 414 -907 683 -1410 769 -49 8
-91 16 -92 18 -1 1 -17 67 -34 146 -125 572 -364 1031 -733 1408 -451 461
-1018 678 -1557 597z m380 -299 c464 -42 967 -403 1265 -909 150 -255 227
-448 310 -772 42 -164 43 -166 9 -162 -22 2 -40 26 -109 143 -46 77 -138 223
-204 325 -368 562 -684 871 -1116 1090 -246 124 -586 204 -788 183 -34 -3 -60
-3 -57 0 10 11 188 69 255 83 135 29 260 34 435 19z m-468 -255 c358 -34 770
-237 1066 -524 229 -222 359 -425 442 -688 42 -137 13 -120 -167 95 -336 401
-501 542 -791 677 l-87 40 75 -67 c298 -266 461 -499 521 -748 25 -106 25
-125 -3 -125 -27 0 -120 95 -258 264 -220 271 -482 510 -698 638 -265 158
-535 240 -702 212 -33 -6 -60 -7 -60 -4 0 4 28 34 63 67 98 95 215 145 373
162 113 12 109 12 226 1z m-249 -440 c324 -109 689 -420 891 -760 69 -116 114
-226 99 -241 -14 -14 -62 11 -117 60 -227 205 -551 425 -769 522 -221 99 -412
143 -591 137 -124 -4 -122 -7 -82 110 56 167 136 214 351 209 104 -3 133 -8
218 -37z m-235 -466 c111 -23 183 -49 302 -111 210 -108 468 -331 581 -503 65
-98 93 -150 85 -157 -14 -14 -83 13 -195 77 -180 102 -315 161 -516 229 -195
65 -328 95 -487 112 -56 5 -105 12 -107 15 -9 9 -40 201 -41 251 0 49 2 54 31
68 70 36 223 45 347 19z m-635 -116 c21 -406 194 -803 482 -1106 172 -182 437
-351 707 -453 49 -18 87 -34 85 -35 -10 -11 -569 88 -681 121 -169 49 -324
145 -542 336 -278 244 -455 503 -511 750 -13 58 -14 84 -5 130 32 172 177 319
358 363 107 26 100 33 107 -106z m403 -302 c267 -72 608 -232 820 -385 70 -51
134 -95 141 -98 7 -3 13 -10 13 -15 0 -15 -173 -1 -295 23 -150 30 -405 95
-538 136 l-119 37 -25 55 c-21 48 -93 253 -93 267 0 6 -6 7 96 -20z m136 -422
c28 -14 157 -68 287 -120 225 -91 464 -204 616 -293 l70 -41 -200 0 c-232 0
-306 12 -399 64 -168 94 -352 266 -430 404 -10 17 -2 15 56 -14z m-1213 -256
c216 -491 663 -861 1311 -1083 74 -25 187 -61 250 -79 63 -19 114 -38 112 -42
-2 -5 -29 -16 -61 -25 -135 -38 -284 -33 -606 21 -200 34 -302 67 -475 156
-358 184 -611 452 -702 744 -19 61 -23 97 -23 190 1 133 20 198 81 269 l37 42
17 -48 c9 -27 36 -92 59 -145z m4116 132 c567 -53 1091 -348 1563 -883 180
-204 300 -376 395 -566 58 -115 62 -128 62 -191 0 -61 -3 -72 -30 -105 -81
-100 -390 -232 -620 -265 -146 -20 -345 -5 -436 34 -20 8 -47 27 -60 42 -64
70 -56 66 -89 49 -81 -42 -62 -144 40 -206 25 -15 86 -40 135 -55 82 -25 104
-27 260 -28 129 0 191 4 255 18 107 23 252 69 335 106 36 16 65 27 65 24 0 -3
-23 -38 -50 -79 -267 -396 -723 -728 -1180 -860 -293 -84 -651 -88 -902 -9
-181 57 -297 124 -424 246 -228 219 -346 534 -345 922 0 234 54 487 147 701
20 44 38 86 41 94 13 30 -64 -26 -143 -104 -118 -117 -220 -282 -278 -448 -28
-83 -36 -69 -36 68 0 105 13 223 40 350 30 148 27 143 103 138 l65 -5 -24 51
c-51 107 -53 241 -3 337 10 21 17 40 14 42 -3 3 -26 -13 -52 -34 -95 -79 -128
-202 -83 -302 l20 -43 -23 6 c-12 4 -41 18 -64 31 -92 53 -109 187 -36 275
l27 32 -25 -8 c-39 -12 -82 -36 -107 -59 -73 -65 -82 -187 -21 -252 l20 -22
-45 -21 c-24 -12 -63 -42 -85 -67 -40 -43 -43 -44 -69 -30 -67 35 -98 102 -82
184 4 24 17 57 29 73 25 34 22 35 -28 10 -88 -45 -142 -143 -121 -220 10 -36
59 -92 91 -103 8 -3 -3 -19 -30 -43 -23 -21 -52 -57 -63 -79 -29 -55 -30 -146
-3 -206 17 -37 17 -44 5 -48 -8 -3 -38 -28 -67 -57 l-51 -53 -27 28 c-54 57
-67 203 -24 278 27 47 5 39 -55 -21 -81 -81 -104 -173 -71 -285 9 -28 27 -65
41 -82 l26 -31 -46 -49 c-58 -61 -93 -136 -102 -212 -7 -62 -8 -62 -73 -42
-32 10 5 337 58 507 145 471 528 959 956 1217 394 238 854 349 1280 310z
m-3680 -239 c152 -123 274 -203 495 -326 96 -54 221 -124 277 -156 151 -87
302 -160 443 -214 69 -26 134 -51 145 -56 34 -13 -131 -10 -257 5 -163 21
-267 47 -394 101 -418 179 -758 468 -915 777 -21 43 -39 80 -39 83 0 3 28 -22
63 -56 34 -33 116 -105 182 -158z m-775 -195 c61 -289 282 -566 629 -785 301
-191 748 -348 1156 -406 172 -24 175 -25 175 -39 0 -31 -135 -69 -306 -87
-405 -41 -867 75 -1214 306 -314 208 -518 481 -566 755 -26 150 -4 284 69 425
l32 60 6 -85 c3 -47 12 -112 19 -144z m6984 -367 c52 -14 136 -95 168 -161 41
-86 53 -151 52 -303 0 -166 -21 -279 -84 -437 -40 -102 -58 -137 -219 -413
-44 -76 -92 -169 -107 -205 -35 -88 -42 -209 -17 -300 18 -63 20 -66 90 -112
116 -77 161 -164 151 -292 -8 -91 -47 -159 -113 -197 -70 -40 -206 -92 -520
-197 -574 -192 -851 -247 -971 -193 -136 62 -190 269 -96 368 21 23 69 43 232
97 282 94 625 219 745 273 116 52 265 133 265 144 0 17 -88 33 -170 32 -88 -1
-218 -32 -303 -73 -22 -11 -42 -18 -44 -17 -2 2 72 102 163 223 186 245 273
372 338 495 53 102 115 265 126 334 15 94 -18 220 -112 432 l-51 116 40 81
c82 164 175 269 266 303 41 15 121 16 171 2z m-3848 -212 c2 -2 -6 -27 -17
-56 -24 -63 -49 -178 -50 -229 0 -20 -4 -45 -8 -56 -7 -17 -10 -16 -43 13 -99
87 -104 222 -11 308 35 32 42 34 82 29 25 -3 46 -7 47 -9z m-310 -143 c-3 -9
-9 -39 -12 -69 -8 -64 7 -114 48 -161 26 -30 29 -37 16 -47 -8 -7 -22 -25 -32
-40 l-17 -28 -39 31 c-75 60 -103 175 -59 246 32 53 111 109 95 68z m-2801
-203 c278 -292 709 -522 1171 -626 164 -37 311 -61 454 -76 67 -6 117 -15 113
-19 -33 -29 -313 -121 -568 -186 -140 -36 -159 -39 -290 -38 -77 0 -183 6
-235 13 -97 13 -549 124 -653 160 -227 79 -357 214 -389 403 -12 68 -3 218 13
218 5 0 9 -8 9 -17 0 -30 57 -141 105 -203 77 -100 200 -176 380 -233 97 -31
329 -78 381 -77 11 1 -28 20 -86 44 -58 23 -132 56 -166 73 -95 49 -241 151
-304 212 -151 148 -207 330 -141 459 34 67 50 69 96 14 22 -26 71 -80 110
-121z m3030 -311 c0 -126 -4 -210 -10 -210 -5 0 -34 26 -65 58 -58 59 -80 110
-80 183 0 90 60 179 121 179 l34 0 0 -210z m-258 106 c1 -1 -4 -24 -12 -51
-20 -64 -19 -101 5 -153 l19 -43 -32 -43 c-18 -24 -37 -52 -43 -62 -11 -18
-15 -16 -58 25 -50 49 -76 109 -76 177 0 57 14 92 56 135 35 36 35 36 87 26
29 -5 53 -11 54 -11z m-283 -351 c9 -22 30 -56 46 -76 l29 -37 -21 -18 c-26
-24 -54 -86 -63 -142 l-7 -43 -26 17 c-86 54 -126 124 -125 219 1 93 37 162
108 206 l30 19 6 -53 c3 -28 14 -70 23 -92z m495 1 l54 -12 17 -57 18 -57 -94
-76 c-54 -44 -98 -73 -105 -69 -6 4 -22 31 -35 59 -30 65 -32 152 -4 214 l19
43 38 -16 c21 -9 62 -22 92 -29z m-280 -183 c13 -50 53 -137 77 -164 12 -13 5
-24 -51 -82 l-65 -66 -25 33 c-53 69 -71 182 -39 248 13 29 67 78 85 78 4 0
12 -21 18 -47z m-489 -61 c0 -29 46 -116 77 -145 l30 -28 -20 -57 c-13 -41
-17 -70 -13 -104 8 -56 1 -59 -59 -25 -61 35 -98 115 -99 215 0 56 5 86 19
112 29 56 65 73 65 32z m-2135 -157 c46 -18 232 -60 365 -80 66 -10 241 -20
470 -27 402 -13 633 -4 810 32 52 10 96 17 98 15 9 -8 -187 -98 -282 -130
-309 -104 -744 -94 -1103 25 -111 36 -307 119 -366 154 -47 29 -44 33 8 11z
m2486 -166 c10 -13 3 -27 -36 -77 -27 -34 -51 -62 -55 -62 -12 0 -51 61 -66
102 -17 50 -18 109 -1 130 6 9 27 25 46 36 l34 21 33 -67 c19 -37 39 -74 45
-83z m684 71 c0 -8 -28 -30 -62 -50 -63 -35 -219 -145 -228 -160 -3 -4 19 5
48 21 96 51 277 103 290 82 4 -6 -35 -31 -86 -58 -251 -130 -443 -271 -554
-406 -72 -86 -145 -211 -175 -298 l-23 -66 -3 80 c-8 212 100 447 283 611 117
105 267 193 410 240 76 25 100 26 100 4z m-3276 -94 c212 -107 522 -203 790
-243 94 -15 180 -18 456 -18 355 1 407 5 614 54 44 10 81 15 81 11 0 -17 -166
-163 -263 -232 -231 -165 -361 -235 -532 -286 -187 -56 -276 -67 -540 -67
-244 0 -373 14 -548 60 -259 67 -363 186 -355 407 l3 83 34 -63 c19 -35 57
-84 85 -109 56 -50 179 -113 266 -134 87 -22 321 -17 464 9 65 12 120 23 122
25 3 2 -42 7 -98 10 -375 23 -633 134 -714 306 -22 46 -25 65 -22 127 2 52 8
78 22 92 21 24 26 23 135 -32z m3396 -195 c3 -5 -25 -35 -62 -67 -117 -98
-213 -187 -213 -196 0 -5 15 2 33 15 47 36 140 80 244 116 172 59 160 45 -117
-129 -239 -151 -402 -308 -480 -460 -27 -53 -70 -175 -71 -204 -3 -57 -27 92
-28 175 -2 200 58 339 214 494 109 109 203 171 348 231 84 34 121 41 132 25z
m245 -287 c0 -4 -75 -81 -167 -171 -113 -111 -151 -153 -116 -129 86 61 385
198 399 183 8 -8 -94 -83 -286 -210 -96 -64 -201 -138 -232 -164 -105 -88
-195 -221 -223 -328 -8 -30 -8 -30 -22 20 -24 79 -21 227 5 310 61 196 270
376 544 470 75 25 98 30 98 19z m-1519 -73 c-19 -34 -201 -199 -317 -286 -261
-196 -482 -305 -763 -376 -375 -95 -701 -71 -917 70 -76 49 -178 158 -212 227
-14 29 -24 56 -21 59 3 3 33 -6 66 -19 225 -88 615 -99 969 -26 223 46 1008
283 1154 348 25 12 46 21 48 21 1 1 -2 -7 -7 -18z m1959 -204 c-14 -17 -55
-75 -91 -127 -37 -52 -84 -118 -104 -146 -52 -74 -152 -170 -223 -215 -34 -22
-62 -35 -62 -30 0 54 95 270 155 352 46 62 137 144 189 171 36 18 143 40 155
31 3 -2 -6 -18 -19 -36z m910 -68 c-157 -147 -259 -214 -430 -282 -63 -25
-116 -44 -118 -42 -8 8 238 226 316 281 84 59 107 70 193 93 120 32 123 29 39
-50z m-458 3 c-120 -151 -277 -287 -415 -358 -49 -25 -90 -44 -92 -42 -10 10
120 210 176 271 108 118 197 166 307 167 l54 0 -30 -38z m2525 -82 c18 -10 45
-38 60 -61 26 -40 28 -50 28 -143 0 -90 -3 -108 -28 -161 -34 -72 -77 -119
-137 -150 -83 -42 -356 -129 -655 -209 -360 -97 -578 -126 -688 -91 -150 47
-231 219 -174 368 17 43 22 47 52 47 130 0 723 170 1185 340 102 37 192 70
200 73 38 13 126 6 157 -13z m-4774 -92 c-110 -376 -340 -679 -733 -967 -222
-163 -253 -183 -362 -238 -82 -41 -166 -63 -265 -70 -174 -11 -285 28 -399
141 -39 39 -78 85 -87 102 l-16 30 62 -13 c247 -51 581 49 931 281 137 91 218
151 191 141 -11 -4 -76 -29 -145 -55 -207 -79 -412 -140 -575 -171 -93 -18
-278 -18 -330 0 -94 33 -136 76 -148 152 l-5 36 81 6 c59 4 124 18 227 51 80
26 199 60 265 77 323 81 506 144 687 235 115 57 286 163 309 190 7 8 22 20 33
26 25 13 27 17 -61 -92 -120 -148 -283 -300 -408 -379 -57 -36 -47 -38 61 -11
293 75 432 178 617 458 45 67 82 122 84 122 1 0 -5 -24 -14 -52z m103 -492
c-32 -86 -140 -314 -189 -396 -55 -93 -214 -327 -245 -362 -19 -21 -31 -38
-27 -38 12 0 143 108 224 185 73 70 315 335 465 513 44 51 81 91 83 89 5 -5
-58 -213 -95 -312 -129 -345 -274 -591 -496 -838 l-89 -100 69 39 c317 176
535 411 717 773 37 74 67 127 67 117 0 -36 -40 -215 -66 -292 -39 -118 -107
-256 -181 -369 -80 -120 -269 -314 -388 -397 -241 -167 -482 -244 -690 -218
-91 11 -97 13 -164 42 l-43 20 48 32 c192 129 270 266 334 586 61 299 74 323
298 555 167 172 222 235 334 382 35 46 64 83 65 83 2 0 -13 -42 -31 -94z
m2289 -273 c46 -177 59 -270 59 -443 0 -283 -56 -474 -217 -738 -27 -45 -51
-81 -52 -80 -2 2 5 42 15 90 29 141 40 276 40 496 0 268 -32 541 -104 882 -13
63 -23 116 -21 118 6 7 133 -295 172 -413 39 -115 43 -124 38 -75 -9 95 -45
514 -44 520 2 10 91 -267 114 -357z m-370 -13 c83 -324 105 -690 60 -990 -43
-284 -89 -432 -153 -495 -37 -37 -238 -175 -254 -175 -5 0 1 18 12 39 30 60
67 197 86 318 25 163 21 423 -11 748 -33 332 -46 849 -21 804 24 -41 96 -225
136 -346 l37 -113 6 105 c4 57 4 182 2 277 l-6 173 41 -125 c22 -69 51 -168
65 -220z m2829 179 c59 -47 71 -124 35 -231 -104 -310 -538 -503 -1074 -477
-151 8 -239 28 -313 72 -87 52 -132 126 -132 217 0 28 7 64 14 79 14 27 19 28
109 34 194 13 731 150 1142 292 118 41 180 45 219 14z m-3738 -91 c-17 -212
-60 -483 -102 -648 -6 -24 -6 -24 8 -5 8 11 21 36 28 55 7 19 31 70 52 112 31
63 137 321 187 453 28 74 -15 -730 -45 -853 -29 -118 -77 -196 -194 -313 -94
-95 -115 -111 -210 -158 -149 -73 -266 -95 -391 -71 -64 12 -82 27 -54 42 40
23 129 114 166 171 87 134 145 325 234 772 35 176 67 347 71 380 l8 60 8 -45
c4 -25 9 -107 10 -182 2 -75 6 -134 9 -130 17 18 189 362 200 400 7 23 14 42
17 42 2 0 2 -37 -2 -82z"/>
<path d="M5861 6330 c-310 -84 -518 -367 -497 -680 7 -105 26 -172 79 -274 74
-142 221 -264 382 -318 57 -19 92 -23 185 -23 100 0 126 4 204 29 170 56 311
176 385 329 53 107 71 181 71 293 0 189 -62 337 -200 474 -130 130 -240 178
-425 186 -89 3 -124 0 -184 -16z m39 -95 c0 -2 -17 -13 -37 -24 -59 -30 -149
-116 -187 -179 -19 -31 -47 -93 -61 -137 -24 -71 -27 -91 -23 -185 3 -93 7
-113 36 -173 44 -94 81 -138 163 -193 86 -57 147 -81 242 -95 86 -13 189 5
271 46 l51 26 -30 -25 c-234 -198 -625 -107 -765 178 -40 81 -70 189 -70 256
0 61 28 169 62 237 58 118 142 194 276 249 58 24 72 28 72 19z m165 -104 c116
-53 162 -208 90 -308 -50 -70 -88 -88 -181 -88 -71 0 -85 3 -121 27 -23 15
-54 44 -70 64 -25 33 -28 46 -28 110 0 64 3 77 30 115 61 87 186 123 280 80z
m-210 -507 c30 -33 34 -91 7 -124 -26 -32 -90 -38 -124 -11 -69 54 -33 161 53
161 30 0 46 -6 64 -26z"/>
<path d="M6361 8842 c-6 -11 -17 -52 -26 -93 -39 -177 -78 -250 -155 -289 -21
-11 -84 -33 -140 -49 -56 -16 -104 -32 -107 -35 -17 -17 16 -36 104 -60 204
-58 251 -110 298 -334 17 -84 30 -112 50 -112 21 0 31 24 55 140 40 188 84
243 227 285 217 64 221 73 53 120 -117 33 -171 63 -208 118 -38 56 -48 84 -72
196 -12 52 -25 102 -31 112 -12 24 -35 24 -48 1z"/>
<path d="M7206 8088 c-8 -29 -22 -86 -31 -127 -44 -190 -101 -247 -304 -301
-101 -26 -131 -39 -131 -55 0 -16 31 -28 155 -60 55 -14 119 -37 142 -51 77
-45 120 -124 148 -273 18 -92 33 -131 51 -131 20 0 29 24 53 137 27 127 42
163 88 214 44 48 83 70 183 98 144 42 170 52 170 67 0 19 -42 36 -150 64 -179
45 -246 120 -286 320 -31 159 -62 193 -88 98z"/>
</g>
</svg>
